<svg width="14" height="14" viewBox="0 0 14 14" fill="none" xmlns="http://www.w3.org/2000/svg">
<path fill-rule="evenodd" clip-rule="evenodd" d="M7.10912 1.32636C7.49322 0.957944 8.11355 0.957944 8.49765 1.32636L13.7092 6.32529C14.0969 6.69721 14.0969 7.30287 13.7092 7.67479L8.49778 12.6737C8.30509 12.8584 8.05342 12.95 7.80352 12.95C7.55363 12.95 7.30193 12.8585 7.10928 12.6737C6.72154 12.3018 6.72151 11.6961 7.10925 11.3242L10.6257 7.95112H0.985036C0.447111 7.95112 0 7.53113 0 7.00004C0 6.46888 0.44712 6.04896 0.985036 6.04896H10.6257L7.10912 2.67587C6.72138 2.30394 6.72138 1.69829 7.10912 1.32636Z" fill="#0096EA"/>
</svg>
