<svg width="72" height="72" viewBox="0 0 72 72" fill="none" xmlns="http://www.w3.org/2000/svg">
<path d="M49.5 2.25H27C25.5087 2.25167 24.0789 2.84485 23.0244 3.89937C21.9698 4.9539 21.3767 6.38367 21.375 7.875V11.25C18.3913 11.25 15.5298 12.4353 13.42 14.545C11.3103 16.6548 10.125 19.5163 10.125 22.5C10.125 25.4837 11.3103 28.3452 13.42 30.455C15.5298 32.5647 18.3913 33.75 21.375 33.75V55.125C21.3767 56.6163 21.9698 58.0461 23.0244 59.1006C24.0789 60.1552 25.5087 60.7483 27 60.75H42.7243L42.75 60.7949V68.625C42.75 68.9234 42.8685 69.2095 43.0795 69.4205C43.2905 69.6315 43.5766 69.75 43.875 69.75H60.75C61.0484 69.75 61.3345 69.6315 61.5455 69.4205C61.7565 69.2095 61.875 68.9234 61.875 68.625V60.9891L64.0574 54.988C64.1021 54.8647 64.125 54.7346 64.125 54.6034V40.5C64.125 39.96 63.9955 39.428 63.7473 38.9484C63.4991 38.4689 63.1395 38.0559 62.6986 37.7442C62.2578 37.4324 61.7486 37.231 61.2137 37.1568C60.6789 37.0826 60.1341 37.1378 59.625 37.3178V37.125C59.6254 36.585 59.4961 36.0527 59.248 35.573C58.9999 35.0934 58.6402 34.6803 58.1992 34.3686C57.7582 34.0568 57.2488 33.8556 56.7138 33.7817C56.1789 33.7078 55.634 33.7635 55.125 33.9441V7.875C55.1233 6.38367 54.5302 4.9539 53.4756 3.89937C52.4211 2.84485 50.9913 2.25167 49.5 2.25ZM27 4.5H49.5C50.1977 4.5009 50.878 4.71763 51.4476 5.12047C52.0172 5.5233 52.4482 6.09251 52.6815 6.75H23.8185C24.0518 6.09251 24.4828 5.5233 25.0524 5.12047C25.622 4.71763 26.3023 4.5009 27 4.5ZM23.625 9H52.875V32.8192C52.1474 32.5607 51.353 32.5603 50.625 32.8178V16.875C50.625 16.5766 50.5065 16.2905 50.2955 16.0795C50.0845 15.8685 49.7984 15.75 49.5 15.75H30.3688C28.7177 13.5502 26.3191 12.0302 23.625 11.4764V9ZM45 20.25H40.5C40.2016 20.25 39.9155 20.3685 39.7045 20.5795C39.4935 20.7905 39.375 21.0766 39.375 21.375V25.875C39.375 26.1734 39.4935 26.4595 39.7045 26.6705C39.9155 26.8815 40.2016 27 40.5 27H44.0685C43.9403 27.3612 43.8748 27.7417 43.875 28.125V29.25H40.5C40.2016 29.25 39.9155 29.3685 39.7045 29.5795C39.4935 29.7905 39.375 30.0766 39.375 30.375V34.875C39.375 35.1734 39.4935 35.4595 39.7045 35.6705C39.9155 35.8815 40.2016 36 40.5 36H43.875V41.2019C43.4886 41.2721 43.1113 41.3853 42.75 41.5394V39.375C42.75 39.0766 42.6315 38.7905 42.4205 38.5795C42.2095 38.3685 41.9234 38.25 41.625 38.25H34.875C34.5766 38.25 34.2905 38.3685 34.0795 38.5795C33.8685 38.7905 33.75 39.0766 33.75 39.375V45H28.125V31.4938C29.677 30.3261 30.9023 28.7785 31.6828 27H36C36.2984 27 36.5845 26.8815 36.7955 26.6705C37.0065 26.4595 37.125 26.1734 37.125 25.875V21.375C37.125 21.0766 37.0065 20.7905 36.7955 20.5795C36.5845 20.3685 36.2984 20.25 36 20.25H32.3986C32.2403 19.4768 32.0004 18.7225 31.6828 18H48.375V24.9435C47.6472 24.6855 46.8528 24.6855 46.125 24.9435V21.375C46.125 21.0766 46.0065 20.7905 45.7955 20.5795C45.5845 20.3685 45.2984 20.25 45 20.25ZM43.875 22.5V24.75H41.625V22.5H43.875ZM43.875 31.5V33.75H41.625V31.5H43.875ZM40.5 40.5V43.4715C40.1976 43.948 39.9587 44.4618 39.7891 45H36V40.5H40.5ZM32.625 24.75V22.5H34.875V24.75H32.625ZM21.375 31.5C19.595 31.5 17.8549 30.9722 16.3749 29.9832C14.8948 28.9943 13.7413 27.5887 13.0601 25.9442C12.3789 24.2996 12.2007 22.49 12.5479 20.7442C12.8952 18.9984 13.7524 17.3947 15.011 16.136C16.2697 14.8774 17.8734 14.0202 19.6192 13.6729C21.365 13.3257 23.1746 13.5039 24.8192 14.1851C26.4637 14.8663 27.8693 16.0198 28.8582 17.4999C29.8472 18.9799 30.375 20.72 30.375 22.5C30.3723 24.8861 29.4232 27.1738 27.736 28.861C26.0488 30.5482 23.7611 31.4973 21.375 31.5ZM23.625 33.5236C24.3982 33.3653 25.1525 33.1254 25.875 32.8078V46.125C25.875 46.4234 25.9935 46.7095 26.2045 46.9205C26.4155 47.1315 26.7016 47.25 27 47.25H39.3922C39.3813 47.4479 39.375 47.6484 39.375 47.8527V54H23.625V33.5236ZM27 58.5C26.3023 58.4991 25.622 58.2824 25.0524 57.8795C24.4828 57.4767 24.0518 56.9075 23.8185 56.25H40.147L41.4356 58.5H27ZM56.25 36C56.5483 36.0003 56.8342 36.119 57.0451 36.3299C57.256 36.5408 57.3747 36.8267 57.375 37.125V47.25C57.375 47.5484 57.4935 47.8345 57.7045 48.0455C57.9155 48.2565 58.2016 48.375 58.5 48.375C58.7984 48.375 59.0845 48.2565 59.2955 48.0455C59.5065 47.8345 59.625 47.5484 59.625 47.25V40.5C59.625 40.2016 59.7435 39.9155 59.9545 39.7045C60.1655 39.4935 60.4516 39.375 60.75 39.375C61.0484 39.375 61.3345 39.4935 61.5455 39.7045C61.7565 39.9155 61.875 40.2016 61.875 40.5V54.4046L59.6926 60.4058C59.6479 60.529 59.625 60.6591 59.625 60.7902V67.5H45V60.4955C45 60.2994 44.9487 60.1066 44.8512 59.9365L41.625 54.3033V47.8527C41.625 46.6893 41.87 44.201 43.875 43.5262V47.25C43.875 47.5484 43.9935 47.8345 44.2045 48.0455C44.4155 48.2565 44.7016 48.375 45 48.375C45.2984 48.375 45.5845 48.2565 45.7955 48.0455C46.0065 47.8345 46.125 47.5484 46.125 47.25V42.75C46.1247 42.662 46.1141 42.5744 46.0934 42.4889C46.1141 42.4034 46.1247 42.3157 46.125 42.2277V28.125C46.125 27.8266 46.2435 27.5405 46.4545 27.3295C46.6655 27.1185 46.9516 27 47.25 27C47.5484 27 47.8345 27.1185 48.0455 27.3295C48.2565 27.5405 48.375 27.8266 48.375 28.125V43.4599C48.375 43.7582 48.4935 44.0444 48.7045 44.2554C48.9155 44.4664 49.2016 44.5849 49.5 44.5849C49.7984 44.5849 50.0845 44.4664 50.2955 44.2554C50.5065 44.0444 50.625 43.7582 50.625 43.4599V36C50.625 35.7016 50.7435 35.4155 50.9545 35.2045C51.1655 34.9935 51.4516 34.875 51.75 34.875C52.0484 34.875 52.3345 34.9935 52.5455 35.2045C52.7565 35.4155 52.875 35.7016 52.875 36V45C52.875 45.2984 52.9935 45.5845 53.2045 45.7955C53.4155 46.0065 53.7016 46.125 54 46.125C54.2984 46.125 54.5845 46.0065 54.7955 45.7955C55.0065 45.5845 55.125 45.2984 55.125 45V37.125C55.1253 36.8267 55.244 36.5408 55.4549 36.3299C55.6658 36.119 55.9517 36.0003 56.25 36Z" fill="white"/>
<path d="M36 29.25H31.5C31.2016 29.25 30.9155 29.3685 30.7045 29.5795C30.4935 29.7905 30.375 30.0766 30.375 30.375V34.875C30.375 35.1734 30.4935 35.4595 30.7045 35.6705C30.9155 35.8815 31.2016 36 31.5 36H36C36.2984 36 36.5845 35.8815 36.7955 35.6705C37.0065 35.4595 37.125 35.1734 37.125 34.875V30.375C37.125 30.0766 37.0065 29.7905 36.7955 29.5795C36.5845 29.3685 36.2984 29.25 36 29.25ZM34.875 33.75H32.625V31.5H34.875V33.75Z" fill="white"/>
<path d="M25.0795 18.3295L19.125 24.2841L17.6705 22.8295C17.4596 22.6185 17.1734 22.5 16.875 22.5C16.5767 22.5 16.2905 22.6185 16.0795 22.8295C15.8685 23.0405 15.75 23.3267 15.75 23.625C15.75 23.9234 15.8685 24.2096 16.0795 24.4205L18.3295 26.6706C18.434 26.775 18.558 26.8579 18.6945 26.9144C18.831 26.971 18.9773 27.0001 19.125 27.0001C19.2728 27.0001 19.4191 26.971 19.5556 26.9144C19.6921 26.8579 19.8161 26.775 19.9205 26.6706L26.6706 19.9205C26.8815 19.7096 27.0001 19.4234 27.0001 19.125C27.0001 18.8267 26.8815 18.5405 26.6706 18.3295C26.4596 18.1185 26.1734 18 25.875 18C25.5767 18 25.2905 18.1185 25.0795 18.3295Z" fill="white"/>
<path d="M36 13.5H49.5C49.7984 13.5 50.0845 13.3815 50.2955 13.1705C50.5065 12.9595 50.625 12.6734 50.625 12.375C50.625 12.0766 50.5065 11.7905 50.2955 11.5795C50.0845 11.3685 49.7984 11.25 49.5 11.25H36C35.7016 11.25 35.4155 11.3685 35.2045 11.5795C34.9935 11.7905 34.875 12.0766 34.875 12.375C34.875 12.6734 34.9935 12.9595 35.2045 13.1705C35.4155 13.3815 35.7016 13.5 36 13.5Z" fill="white"/>
<path d="M31.5 13.5C32.1213 13.5 32.625 12.9963 32.625 12.375C32.625 11.7537 32.1213 11.25 31.5 11.25C30.8787 11.25 30.375 11.7537 30.375 12.375C30.375 12.9963 30.8787 13.5 31.5 13.5Z" fill="white"/>
<path d="M31.5 49.5H27C26.7016 49.5 26.4155 49.6185 26.2045 49.8295C25.9935 50.0405 25.875 50.3266 25.875 50.625C25.875 50.9234 25.9935 51.2095 26.2045 51.4205C26.4155 51.6315 26.7016 51.75 27 51.75H31.5C31.7984 51.75 32.0845 51.6315 32.2955 51.4205C32.5065 51.2095 32.625 50.9234 32.625 50.625C32.625 50.3266 32.5065 50.0405 32.2955 49.8295C32.0845 49.6185 31.7984 49.5 31.5 49.5Z" fill="white"/>
</svg>
