<svg width="70" height="70" viewBox="0 0 70 70" fill="none" xmlns="http://www.w3.org/2000/svg">
<g clip-path="url(#clip0)">
<path d="M36.0717 13.9893C20.6296 13.9893 8.06641 26.5525 8.06641 41.9947C8.06641 57.437 20.6296 70.0001 36.0717 70.0001C51.5138 70.0001 64.0771 57.4368 64.0771 41.9947C64.0771 26.5526 51.514 13.9893 36.0717 13.9893ZM36.0717 65.8985C22.8912 65.8985 12.168 55.1752 12.168 41.9947C12.168 28.8142 22.8912 18.091 36.0717 18.091C49.2522 18.091 59.9755 28.8142 59.9755 41.9947C59.9755 55.1752 49.2524 65.8985 36.0717 65.8985Z" fill="#0096EA"/>
<path d="M48.302 47.2027C47.4423 46.4654 46.1475 46.5644 45.4102 47.4242C43.0685 50.1542 39.6647 51.72 36.0716 51.72C32.4788 51.72 29.0751 50.1543 26.7333 47.4243C25.9959 46.5646 24.7013 46.4657 23.8416 47.203C22.9819 47.9404 22.8828 49.2352 23.6203 50.0947C26.7421 53.7342 31.2806 55.8216 36.0718 55.8216C40.8631 55.8216 45.4016 53.7342 48.5234 50.0944C49.2608 49.2349 49.1616 47.9402 48.302 47.2027Z" fill="#0096EA"/>
<path d="M24.6865 38.769C25.8191 38.769 26.7373 37.8508 26.7373 36.7182C26.7373 36.0607 27.2723 35.5258 27.9298 35.5258C28.5872 35.5258 29.1222 36.0607 29.1222 36.7182C29.1222 37.8508 30.0404 38.769 31.173 38.769C32.3056 38.769 33.2238 37.8508 33.2238 36.7182C33.2238 33.7991 30.8488 31.4242 27.9298 31.4242C25.0107 31.4242 22.6357 33.7991 22.6357 36.7182C22.6357 37.8509 23.5539 38.769 24.6865 38.769Z" fill="#0096EA"/>
<path d="M44.2139 31.4244C41.2949 31.4244 38.9199 33.7994 38.9199 36.7185C38.9199 37.8511 39.8381 38.7693 40.9707 38.7693C42.1033 38.7693 43.0215 37.8511 43.0215 36.7185C43.0215 36.061 43.5565 35.526 44.2139 35.526C44.8714 35.526 45.4064 36.061 45.4064 36.7185C45.4064 37.8511 46.3246 38.7693 47.4572 38.7693C48.5898 38.7693 49.508 37.8511 49.508 36.7185C49.508 33.7992 47.133 31.4244 44.2139 31.4244Z" fill="#0096EA"/>
<path d="M52.9678 11.52H55.9596C57.0922 11.52 58.0104 10.6018 58.0104 9.46924C58.0104 8.33666 57.0922 7.41846 55.9596 7.41846H52.9678C51.8352 7.41846 50.917 8.33666 50.917 9.46924C50.917 10.6018 51.8352 11.52 52.9678 11.52Z" fill="#0096EA"/>
<path d="M60.458 18.9385C61.5906 18.9385 62.5088 18.0203 62.5088 16.8877V13.8959C62.5088 12.7633 61.5906 11.8451 60.458 11.8451C59.3254 11.8451 58.4072 12.7633 58.4072 13.8959V16.8877C58.4072 18.0204 59.3254 18.9385 60.458 18.9385Z" fill="#0096EA"/>
<path d="M67.9488 7.41846H64.957C63.8245 7.41846 62.9062 8.33666 62.9062 9.46924C62.9062 10.6018 63.8245 11.52 64.957 11.52H67.9488C69.0814 11.52 69.9996 10.6018 69.9996 9.46924C69.9996 8.33666 69.0814 7.41846 67.9488 7.41846Z" fill="#0096EA"/>
<path d="M60.458 7.09338C61.5906 7.09338 62.5088 6.17518 62.5088 5.0426V2.05078C62.5088 0.918203 61.5906 0 60.458 0C59.3254 0 58.4072 0.918203 58.4072 2.05078V5.0426C58.4072 6.17518 59.3254 7.09338 60.458 7.09338Z" fill="#0096EA"/>
<path d="M4.43926 10.1528H2.05078C0.918203 10.1528 0 11.071 0 12.2036C0 13.3362 0.918203 14.2544 2.05078 14.2544H4.43926C5.57184 14.2544 6.49004 13.3362 6.49004 12.2036C6.49004 11.071 5.57184 10.1528 4.43926 10.1528Z" fill="#0096EA"/>
<path d="M10.7656 18.8097V16.4213C10.7656 15.2887 9.84742 14.3705 8.71484 14.3705C7.58226 14.3705 6.66406 15.2887 6.66406 16.4213V18.8097C6.66406 19.9423 7.58226 20.8605 8.71484 20.8605C9.84742 20.8605 10.7656 19.9423 10.7656 18.8097Z" fill="#0096EA"/>
<path d="M12.9902 14.2544H15.3787C16.5113 14.2544 17.4295 13.3362 17.4295 12.2036C17.4295 11.071 16.5113 10.1528 15.3787 10.1528H12.9902C11.8577 10.1528 10.9395 11.071 10.9395 12.2036C10.9395 13.3362 11.8577 14.2544 12.9902 14.2544Z" fill="#0096EA"/>
<path d="M8.71484 10.0368C9.84742 10.0368 10.7656 9.11859 10.7656 7.98601V5.59753C10.7656 4.46496 9.84742 3.54675 8.71484 3.54675C7.58226 3.54675 6.66406 4.46496 6.66406 5.59753V7.98601C6.66406 9.11859 7.58226 10.0368 8.71484 10.0368Z" fill="#0096EA"/>
</g>
<defs>
<clipPath id="clip0">
<rect width="70" height="70" fill="white"/>
</clipPath>
</defs>
</svg>
