<svg width="78" height="82" viewBox="0 0 78 82" fill="none" xmlns="http://www.w3.org/2000/svg">
<path d="M2.00039 15.3C2.10039 15.1 2.20039 15 2.30039 15L9.90039 14C10.2004 14 10.4004 14.2 10.5004 14.4C10.6004 14.6 10.3004 15 10.0004 15L9.00039 15.2V16.5L11.5004 16.2V13.7L10.6004 12.3C10.5004 12.1 10.5004 12 10.6004 11.8C10.7004 11.6 10.8004 11.5 11.0004 11.5L21.6004 11C21.8004 11 21.9004 11.1 22.0004 11.2L24.5004 14.7L31.6004 13.9C31.7004 13.9 31.9004 13.9 32.0004 14C32.1004 14.1 32.2004 14.2 32.2004 14.4C32.2004 18.9 27.0004 22.5 20.6004 22.5H4.40039C4.20039 22.5 4.00039 22.4 3.90039 22.1L1.90039 15.5C1.90039 15.5 1.90039 15.4 2.00039 15.3ZM8.00039 16.5V15.3L6.00039 15.6V16.8L8.00039 16.5ZM16.6004 12.2L11.9004 12.4L12.4004 13.2C12.5004 13.3 12.5004 13.4 12.5004 13.5V16.1L17.0004 15.6L16.6004 12.2ZM21.3004 12L17.5004 12.2L18.0004 15.5L23.4004 14.9L21.3004 12ZM4.80039 21.6H20.6004C25.1004 21.6 28.9004 19.7 30.5004 17.1L4.30039 20L4.80039 21.6ZM4.00039 19L30.9004 16C31.0004 15.7 31.1004 15.4 31.1004 15L3.70039 18L4.00039 19ZM3.40039 17L4.90039 16.8V15.6L3.00039 15.8L3.40039 17Z" fill="#0096EA" stroke="#0096EA" stroke-width="0.5" stroke-miterlimit="10"/>
<path d="M42.0004 15.3C42.1004 15.1 42.2004 15 42.3004 15L49.9004 14C50.2004 14 50.4004 14.2 50.5004 14.4C50.6004 14.6 50.3004 15 50.0004 15L49.0004 15.2V16.5L51.5004 16.2V13.7L50.6004 12.3C50.5004 12.1 50.5004 12 50.6004 11.8C50.7004 11.6 50.8004 11.5 51.0004 11.5L61.6004 11C61.8004 11 61.9004 11.1 62.0004 11.2L64.5004 14.7L71.6004 13.9C71.7004 13.9 71.9004 13.9 72.0004 14C72.1004 14.1 72.2004 14.2 72.2004 14.4C72.2004 18.9 67.0004 22.5 60.6004 22.5H44.4004C44.2004 22.5 44.0004 22.4 43.9004 22.1L41.9004 15.5C41.9004 15.5 41.9004 15.4 42.0004 15.3ZM48.0004 16.5V15.3L46.0004 15.6V16.8L48.0004 16.5ZM56.6004 12.2L51.9004 12.4L52.4004 13.2C52.5004 13.3 52.5004 13.4 52.5004 13.5V16.1L57.0004 15.6L56.6004 12.2ZM61.3004 12L57.5004 12.2L58.0004 15.5L63.4004 14.9L61.3004 12ZM44.8004 21.6H60.6004C65.1004 21.6 68.9004 19.7 70.5004 17.1L44.3004 20L44.8004 21.6ZM44.0004 19L70.9004 16C71.0004 15.7 71.1004 15.4 71.1004 15L43.7004 18L44.0004 19ZM43.4004 17L44.9004 16.8V15.6L43.0004 15.8L43.4004 17Z" fill="#0096EA" stroke="#0096EA" stroke-width="0.5" stroke-miterlimit="10"/>
<path d="M2.00039 55.3C2.10039 55.1 2.20039 55 2.30039 55L9.90039 54C10.2004 54 10.4004 54.2 10.5004 54.4C10.6004 54.6 10.3004 55 10.0004 55L9.00039 55.2V56.5L11.5004 56.2V53.7L10.6004 52.3C10.5004 52.1 10.5004 52 10.6004 51.8C10.7004 51.6 10.8004 51.5 11.0004 51.5L21.6004 51C21.8004 51 21.9004 51.1 22.0004 51.2L24.5004 54.7L31.6004 53.9C31.7004 53.9 31.9004 53.9 32.0004 54C32.1004 54.1 32.2004 54.2 32.2004 54.4C32.2004 58.9 27.0004 62.5 20.6004 62.5H4.40039C4.20039 62.5 4.00039 62.4 3.90039 62.1L1.90039 55.5C1.90039 55.5 1.90039 55.4 2.00039 55.3ZM8.00039 56.5V55.3L6.00039 55.6V56.8L8.00039 56.5ZM16.6004 52.2L11.9004 52.4L12.4004 53.2C12.5004 53.3 12.5004 53.4 12.5004 53.5V56.1L17.0004 55.6L16.6004 52.2ZM21.3004 52L17.5004 52.2L18.0004 55.5L23.4004 54.9L21.3004 52ZM4.80039 61.6H20.6004C25.1004 61.6 28.9004 59.7 30.5004 57.1L4.30039 60L4.80039 61.6ZM4.00039 59L30.9004 56C31.0004 55.7 31.1004 55.4 31.1004 55L3.70039 58L4.00039 59ZM3.40039 57L4.90039 56.8V55.6L3.00039 55.8L3.40039 57Z" fill="#0096EA" stroke="#0096EA" stroke-width="0.5" stroke-miterlimit="10"/>
<g clip-path="url(#clip0)">
<path d="M60.0621 34.1789C51.8243 25.9412 38.4167 25.9412 30.1789 34.1789C21.943 42.4185 21.943 55.8243 30.1789 64.0639C37.5149 71.398 48.9403 72.1838 57.1727 66.4568C57.3459 67.2765 57.7424 68.0586 58.3799 68.6961L70.3767 80.693C72.125 82.4377 74.9501 82.4377 76.6894 80.693C78.4359 78.9465 78.4359 76.1214 76.6894 74.3803L64.6926 62.3799C64.0586 61.7477 63.2747 61.3495 62.455 61.1763C68.1856 52.9421 67.3998 41.5185 60.0621 34.1789ZM56.2744 60.2762C50.1242 66.4264 40.115 66.4264 33.9666 60.2762C27.8199 54.126 27.8199 44.1186 33.9666 37.9683C40.115 31.8199 50.1242 31.8199 56.2744 37.9683C62.4246 44.1186 62.4246 54.126 56.2744 60.2762Z" fill="#0096EA"/>
</g>
<line x1="37" y1="1" x2="37" y2="71" stroke="#0096EA" stroke-width="2" stroke-linecap="round" stroke-linejoin="round"/>
<line x1="71" y1="37" x2="1" y2="37" stroke="#0096EA" stroke-width="2" stroke-linecap="round" stroke-linejoin="round"/>
<path d="M42.0004 55.3C42.1004 55.1 42.2004 55 42.3004 55L49.9004 54C50.2004 54 50.4004 54.2 50.5004 54.4C50.6004 54.6 50.3004 55 50.0004 55L49.0004 55.2V56.5L51.5004 56.2V53.7L50.6004 52.3C50.5004 52.1 50.5004 52 50.6004 51.8C50.7004 51.6 50.8004 51.5 51.0004 51.5L61.6004 51C61.8004 51 61.9004 51.1 62.0004 51.2L64.5004 54.7L71.6004 53.9C71.7004 53.9 71.9004 53.9 72.0004 54C72.1004 54.1 72.2004 54.2 72.2004 54.4C72.2004 58.9 67.0004 62.5 60.6004 62.5H44.4004C44.2004 62.5 44.0004 62.4 43.9004 62.1L41.9004 55.5C41.9004 55.5 41.9004 55.4 42.0004 55.3ZM48.0004 56.5V55.3L46.0004 55.6V56.8L48.0004 56.5ZM56.6004 52.2L51.9004 52.4L52.4004 53.2C52.5004 53.3 52.5004 53.4 52.5004 53.5V56.1L57.0004 55.6L56.6004 52.2ZM61.3004 52L57.5004 52.2L58.0004 55.5L63.4004 54.9L61.3004 52ZM44.8004 61.6H60.6004C65.1004 61.6 68.9004 59.7 70.5004 57.1L44.3004 60L44.8004 61.6ZM44.0004 59L70.9004 56C71.0004 55.7 71.1004 55.4 71.1004 55L43.7004 58L44.0004 59ZM43.4004 57L44.9004 56.8V55.6L43.0004 55.8L43.4004 57Z" fill="#0096EA" stroke="#0096EA" stroke-width="0.5" stroke-miterlimit="10"/>
<defs>
<clipPath id="clip0">
<rect width="54" height="54" fill="white" transform="translate(24 28)"/>
</clipPath>
</defs>
</svg>
