<svg width="30" height="30" viewBox="0 0 30 30" fill="none" xmlns="http://www.w3.org/2000/svg">
<path fill-rule="evenodd" clip-rule="evenodd" d="M8.94231 10.9209C8.94231 8.61533 9.72872 6.96094 10.8415 5.88191C11.9648 4.79276 13.4741 4.2378 15 4.2378C16.5259 4.23781 18.0352 4.79278 19.1585 5.88193C20.2713 6.96096 21.0577 8.61535 21.0577 10.9209C21.0577 14.4537 18.7138 17.461 16.7474 19.3445C15.7475 20.3023 14.2528 20.3024 13.2529 19.3446C11.2864 17.461 8.94231 14.4537 8.94231 10.9209ZM22.7885 10.9209C22.7885 8.19176 21.8441 6.07017 20.3608 4.63187C18.8879 3.2037 16.9356 2.5 15 2.5C13.0644 2.49999 11.1121 3.20368 9.63923 4.63185C8.1559 6.07014 7.21154 8.19174 7.21154 10.9209C7.21154 15.1964 10.0079 18.6382 12.0582 20.602C13.7269 22.2003 16.2735 22.2003 17.9421 20.6019C19.9923 18.6381 22.7885 15.1963 22.7885 10.9209ZM15 8.87195C14.2034 8.87195 13.5577 9.52032 13.5577 10.3201C13.5577 11.1199 14.2034 11.7683 15 11.7683C15.7966 11.7683 16.4423 11.1199 16.4423 10.3201C16.4423 9.52032 15.7966 8.87195 15 8.87195ZM11.8269 10.3201C11.8269 8.56056 13.2476 7.13415 15 7.13415C16.7524 7.13415 18.1731 8.56056 18.1731 10.3201C18.1731 12.0797 16.7524 13.5061 15 13.5061C13.2476 13.5061 11.8269 12.0797 11.8269 10.3201ZM7.71677 19.0642C7.90724 19.5043 7.70629 20.0161 7.26795 20.2074C6.60142 20.4981 6.12702 20.8048 5.83223 21.0935C5.53982 21.3798 5.48077 21.5882 5.48077 21.7149C5.48077 21.8605 5.56223 22.1212 5.98466 22.4738C6.40195 22.8221 7.05765 23.1747 7.94402 23.4876C9.70887 24.1107 12.2035 24.5122 15 24.5122C17.7965 24.5122 20.2911 24.1107 22.056 23.4876C22.9424 23.1747 23.5981 22.8221 24.0153 22.4738C24.4378 22.1212 24.5192 21.8605 24.5192 21.7149C24.5192 21.5882 24.4602 21.3798 24.1678 21.0935C23.873 20.8048 23.3986 20.4981 22.732 20.2074C22.2937 20.0161 22.0928 19.5043 22.2832 19.0642C22.4737 18.624 22.9834 18.4223 23.4218 18.6135C24.1985 18.9524 24.8779 19.3614 25.3762 19.8494C25.8768 20.3396 26.25 20.9686 26.25 21.7149C26.25 22.5817 25.7503 23.2855 25.1217 23.8102C24.488 24.3391 23.623 24.7765 22.6301 25.127C20.6364 25.8308 17.9388 26.25 15 26.25C12.0612 26.25 9.36356 25.8308 7.36992 25.127C6.37704 24.7765 5.51195 24.3391 4.87825 23.8102C4.24971 23.2855 3.75 22.5817 3.75 21.7149C3.75 20.9686 4.12318 20.3396 4.62381 19.8494C5.12206 19.3614 5.80151 18.9524 6.57821 18.6135C7.01655 18.4223 7.52631 18.624 7.71677 19.0642Z" fill="white"/>
</svg>
