<svg width="24" height="24" viewBox="0 0 24 24" fill="none" xmlns="http://www.w3.org/2000/svg">
<path fill-rule="evenodd" clip-rule="evenodd" d="M2.71309 11.2918C2.71309 6.55362 6.55411 2.7126 11.2923 2.7126C16.0304 2.7126 19.8714 6.55362 19.8714 11.2918C19.8714 16.0299 16.0304 19.8709 11.2923 19.8709C6.55411 19.8709 2.71309 16.0299 2.71309 11.2918ZM11.2923 0.537598C5.35289 0.537598 0.538086 5.3524 0.538086 11.2918C0.538086 17.2311 5.35289 22.0459 11.2923 22.0459C13.8703 22.0459 16.2364 21.1388 18.0889 19.6263L21.3983 22.9357C21.823 23.3604 22.5115 23.3604 22.9362 22.9357C23.3609 22.511 23.3609 21.8225 22.9362 21.3978L19.6268 18.0884C21.1393 16.2359 22.0464 13.8698 22.0464 11.2918C22.0464 5.3524 17.2316 0.537598 11.2923 0.537598Z" fill="white"/>
</svg>
